<svg width="51" height="52" viewBox="0 0 51 52" fill="none" xmlns="http://www.w3.org/2000/svg">
<g filter="url(#filter0_d_59_2101)">
<path d="M6 2.00012H9.48C11.64 2.00012 13.34 3.86012 13.16 6.00012L11.5 25.9201C11.4352 26.6918 11.5314 27.4686 11.7825 28.2012C12.0336 28.9338 12.4341 29.6063 12.9587 30.176C13.4833 30.7457 14.1205 31.2002 14.8299 31.5108C15.5393 31.8214 16.3056 31.9812 17.08 31.9801H38.38C41.26 31.9801 43.78 29.6201 44 26.7601L45.08 11.7601C45.32 8.44012 42.8 5.74012 39.46 5.74012H13.64M20 14.0001H44M34.5 42.0001C35.163 42.0001 35.7989 41.7367 36.2678 41.2679C36.7366 40.799 37 40.1632 37 39.5001C37 38.8371 36.7366 38.2012 36.2678 37.7324C35.7989 37.2635 35.163 37.0001 34.5 37.0001C33.837 37.0001 33.2011 37.2635 32.7322 37.7324C32.2634 38.2012 32 38.8371 32 39.5001C32 40.1632 32.2634 40.799 32.7322 41.2679C33.2011 41.7367 33.837 42.0001 34.5 42.0001ZM18.5 42.0001C19.163 42.0001 19.7989 41.7367 20.2678 41.2679C20.7366 40.799 21 40.1632 21 39.5001C21 38.8371 20.7366 38.2012 20.2678 37.7324C19.7989 37.2635 19.163 37.0001 18.5 37.0001C17.837 37.0001 17.2011 37.2635 16.7322 37.7324C16.2634 38.2012 16 38.8371 16 39.5001C16 40.1632 16.2634 40.799 16.7322 41.2679C17.2011 41.7367 17.837 42.0001 18.5 42.0001Z" stroke="black" stroke-width="3" stroke-miterlimit="10" stroke-linecap="round" stroke-linejoin="round" shape-rendering="crispEdges"/>
</g>
<defs>
<filter id="filter0_d_59_2101" x="0.5" y="0.500122" width="50.0959" height="51" filterUnits="userSpaceOnUse" color-interpolation-filters="sRGB">
<feFlood flood-opacity="0" result="BackgroundImageFix"/>
<feColorMatrix in="SourceAlpha" type="matrix" values="0 0 0 0 0 0 0 0 0 0 0 0 0 0 0 0 0 0 127 0" result="hardAlpha"/>
<feOffset dy="4"/>
<feGaussianBlur stdDeviation="2"/>
<feComposite in2="hardAlpha" operator="out"/>
<feColorMatrix type="matrix" values="0 0 0 0 0 0 0 0 0 0 0 0 0 0 0 0 0 0 0.25 0"/>
<feBlend mode="normal" in2="BackgroundImageFix" result="effect1_dropShadow_59_2101"/>
<feBlend mode="normal" in="SourceGraphic" in2="effect1_dropShadow_59_2101" result="shape"/>
</filter>
</defs>
</svg>
