<svg width="615" height="462" viewBox="0 0 615 462" fill="none" xmlns="http://www.w3.org/2000/svg">
<path fill-rule="evenodd" clip-rule="evenodd" d="M99.7279 0.543492C96.1979 0.913492 95.9779 1.13749 95.9779 4.37549V7.8155H88.9779H81.9779V11.3155C81.9779 14.7325 81.8829 14.8155 77.9779 14.8155C74.0869 14.8155 73.9779 14.9085 73.9779 18.2555C73.9779 21.5075 73.7739 21.7115 70.2279 22.0055C66.6819 22.2985 66.4609 22.5195 66.1679 26.0655C65.8739 29.6115 65.6699 29.8155 62.4179 29.8155C59.0709 29.8155 58.9779 29.9245 58.9779 33.8155C58.9779 37.7205 58.8949 37.8155 55.4779 37.8155H51.9779V44.8155V51.8155H48.5629H45.1489L44.5089 59.0655C44.1579 63.0535 44.0069 81.1655 44.1739 99.3155L44.4779 132.315L48.1689 132.622C51.5119 132.9 51.8889 133.23 52.1689 136.122L52.4779 139.315L66.7279 139.592L80.9779 139.87V143.342V146.815H88.4779H95.9779V150.815C95.9779 154.72 96.0609 154.815 99.4779 154.815C102.811 154.815 102.978 154.982 102.978 158.315C102.978 161.648 103.145 161.815 106.478 161.815C109.811 161.815 109.978 161.982 109.978 165.315C109.978 168.632 110.157 168.815 113.393 168.815H116.807L117.51 176.315L118.213 183.815H121.568H124.923L125.201 198.065L125.478 212.315L128.728 212.628L131.978 212.943V238.378V263.815H307.978H483.978V238.378V212.943L487.228 212.628L490.478 212.315L490.755 198.065L491.033 183.815H494.388H497.743L498.446 176.315L499.149 168.815H502.563C505.799 168.815 505.978 168.632 505.978 165.315C505.978 161.982 506.145 161.815 509.478 161.815C512.811 161.815 512.978 161.648 512.978 158.315C512.978 154.982 513.145 154.815 516.478 154.815C519.895 154.815 519.978 154.72 519.978 150.815V146.815H527.478H534.978V143.342V139.87L549.228 139.592L563.478 139.315L563.787 136.122C564.067 133.23 564.444 132.9 567.787 132.622L571.478 132.315L571.796 113.315C571.971 102.866 571.809 84.7535 571.436 73.0655L570.757 51.8155H567.497H564.236L563.547 44.8155C562.865 37.8925 562.824 37.8155 559.917 37.8155C557.155 37.8155 556.978 37.5745 556.978 33.8155C556.978 29.9245 556.885 29.8155 553.538 29.8155C550.286 29.8155 550.082 29.6115 549.788 26.0655C549.495 22.5195 549.274 22.2985 545.728 22.0055C542.182 21.7115 541.978 21.5075 541.978 18.2555C541.978 14.9085 541.869 14.8155 537.978 14.8155C534.073 14.8155 533.978 14.7325 533.978 11.3155V7.8155H526.978H519.978V4.45449C519.978 1.1475 519.895 1.0845 514.728 0.463498C509.169 -0.204502 106.133 -0.126508 99.7279 0.543492ZM22.9779 179.186V182.557L16.0329 183.241L9.08788 183.925L8.40388 190.87L7.71988 197.815H4.49088C1.27288 197.815 1.26088 197.835 0.619882 203.962C-0.210118 211.91 -0.205118 441.645 0.625882 448.565C1.24688 453.732 1.30988 453.815 4.61688 453.815C7.87488 453.815 7.97788 453.938 7.97788 457.842V461.868L22.7279 461.592L37.4779 461.315L37.7879 457.565C38.0819 454.02 38.2859 453.815 41.5379 453.815H44.9779V435.815V417.815H307.978H570.978V435.815V453.815H574.418C577.67 453.815 577.874 454.02 578.168 457.565L578.478 461.315L593.228 461.592L607.978 461.868V457.842C607.978 453.906 608.057 453.815 611.478 453.815H614.978V325.815V197.815H611.607H608.236L607.552 190.87L606.868 183.925L599.923 183.241L592.978 182.557V179.186V175.815H570.978H548.978V179.214V182.612L542.07 183.306L535.162 183.999L534.469 190.908L533.775 197.815H530.377H526.978V252.315V306.815H307.978H88.9779V252.315V197.815H85.6069H82.2359L81.5559 190.911L80.8759 184.008L73.9269 183.31L66.9779 182.612V179.214V175.815H44.9779H22.9779V179.186Z" fill="#95C5B7"/>
</svg>
